# xmcd
#
# Track frame offsets: 
#        150
#        11459
#        26976
#        38534
#        48431
#        58456
#        69599
#        81611
#        94819
#        106609
#        115521
#        126849
#        138111
#        150946
#        163614
#        173814
#        182541
#        193766
#        204626
#        256877
#        307554
#        322256
#        335969
#
# Disc length: 4643 seconds
#
# Revision: 0
# Processed by: cddbd v1.5.2PL0 Copyright (c) Steve Scherf et al.
# Submitted via: ExactAudioCopy v0.95b3
#
DISCID=3b122117
DTITLE=Chuck Berry  - Johnny B. Goode His Complete '50's Chess Recordi
DTITLE=ngs Disc 3
DYEAR=1900
DGENRE=
TTITLE0=It Don't Take But a Few Minutes
TTITLE1=Blues for Hawaiians
TTITLE2=Beautiful Delilah ALTERNATE TAKES 15 and 16
TTITLE3=Beautiful Delilah TAKE 6
TTITLE4=21 Blues
TTITLE5=21
TTITLE6=21 Take 14
TTITLE7=Vacation Time
TTITLE8=Oh Yeah
TTITLE9=Hey Pedro
TTITLE10=Time Was FAST VERSION
TTITLE11=House Of Blue Lights
TTITLE12=Carol
TTITLE13=Jo Jo Gunne
TTITLE14=Memphis Tennessee
TTITLE15=Anthony Boy
TTITLE16=Sweet Little Rock 'N' Roller ALTERNATE TAKE 5
TTITLE17=Sweet Little Rock 'N' Roller TAKE 11A
TTITLE18=Long Fast Jam
TTITLE19=Long Slow Jam
TTITLE20=Merry Christmas Baby
TTITLE21=Merry Christmas Baby ALTERNATE TAKE
TTITLE22=Run Rudolph Run
EXTD=
EXTT0=
EXTT1=
EXTT2=
EXTT3=
EXTT4=
EXTT5=
EXTT6=
EXTT7=
EXTT8=
EXTT9=
EXTT10=
EXTT11=
EXTT12=
EXTT13=
EXTT14=
EXTT15=
EXTT16=
EXTT17=
EXTT18=
EXTT19=
EXTT20=
EXTT21=
EXTT22=
PLAYORDER=
